<?xml version="1.0" encoding="UTF-8"?>
<svg id="Capa_1" xmlns="http://www.w3.org/2000/svg" version="1.1" viewBox="0 0 900 600">
  <!-- Generator: Adobe Illustrator 30.4.0, SVG Export Plug-In . SVG Version: 2.1.4 Build 226)  -->
  <defs>
    <style>
      .st0 {
        fill: #fff;
      }

      .st1 {
        fill: #36486f;
      }
    </style>
  </defs>
  <polygon class="st1" points="600 0 300 0 0 0 0 600 300 600 600 600 900 600 900 0 600 0"/>
  <circle class="st0" cx="450" cy="300" r="289.5"/>
  <g>
    <g>
      <path class="st1" d="M538.6,510.32l-64.38-76.03-62.54-77.27c-18.74-23.16-68.53-92.19-68.57-117.32-.05-33.25,8.83-65.27,24.86-94.81,3.75,23.57,13.45,43.66,25.18,64.47,28.15,47.85,63.04,90.74,98.67,133.32l90.12,101.73-43.35,65.89Z"/>
      <g>
        <path class="st1" d="M459.67,89.6c21.65,2.77,41.2,12.92,55.55,29.84,5.06,18.87-5.36,41.84-14.14,60.05-33.54-19.99-74.38-18.52-106.31,2.55-9.18-19.88-17.28-42.46-10.01-62.63,14.27-16.83,33.89-27.04,55.49-29.81h19.42Z"/>
        <path class="st1" d="M504.39,335.67l-48.21-59.32c13.99-19.29,27.26-38.43,39.86-58.78,8.78-14.51,16.48-28.68,23.52-44.02,4.42-10.47,7.82-20.47,10.42-32.13,17.25,29.86,26.58,63.04,27.02,97.43.06,5.06-1.79,9.72-2.99,14.38-3.65,9.23-7.67,17.55-12.47,26.33-11.28,19.51-23.56,37.69-37.15,56.11Z"/>
      </g>
    </g>
    <path class="st1" d="M390.71,475.76l-29.21,34.65-43.46-66.05c26.24-28.46,50.58-57.63,75.3-88.01l47.54,60.01-50.17,59.39Z"/>
  </g>
</svg>